<svg width="812" height="188" viewBox="0 0 812 188" fill="none" xmlns="http://www.w3.org/2000/svg">
<path fill-rule="evenodd" clip-rule="evenodd" d="M21.8326 85.4067L35.318 134.211L95.6808 168.887L83.4798 123.294L66.7837 78.343L21.8326 85.4067ZM24.1509 86.9014L36.8871 132.994L92.7647 165.094L81.7282 123.852L65.5851 80.3904L24.1509 86.9014Z" fill="#84673B"/>
<path d="M91.8291 122.652L75.133 78.9854L109.167 86.0491V187.51L91.8291 122.652Z" fill="url(#paint0_linear)"/>
<path d="M131 54.3944L111.735 77.0587L66.7843 70.6372L19.2647 77.0587L0 54.3944V22.6643L19.2647 0L66.7843 9.06573L111.735 0L131 22.6643V54.3944Z" fill="url(#paint1_linear)"/>
<path d="M24.4023 43.1529V39.0431L27.4846 35.9608H31.5944L34.6768 39.0431V43.1529L31.5944 46.2353H27.4846L24.4023 43.1529Z" fill="black"/>
<path fill-rule="evenodd" clip-rule="evenodd" d="M27.1043 35.0425H31.9748L35.595 38.6628V43.5333L31.9748 47.1535H27.1043L23.4841 43.5333V38.6628L27.1043 35.0425ZM27.865 36.879L25.3205 39.4235V42.7726L27.865 45.317H31.2141L33.7586 42.7726V39.4235L31.2141 36.879H27.865Z" fill="black"/>
<path d="M96.3233 43.1529V39.0431L99.4056 35.9608H103.515L106.598 39.0431V43.1529L103.515 46.2353H99.4056L96.3233 43.1529Z" fill="black"/>
<path fill-rule="evenodd" clip-rule="evenodd" d="M99.0253 35.0425H103.896L107.516 38.6628V43.5333L103.896 47.1535H99.0253L95.4051 43.5333V38.6628L99.0253 35.0425ZM99.786 36.879L97.2415 39.4235V42.7726L99.786 45.317H103.135L105.68 42.7726V39.4235L103.135 36.879H99.786Z" fill="black"/>
<path fill-rule="evenodd" clip-rule="evenodd" d="M23.4627 24.6851L48.7649 30.0118L67.5903 64.4168L65.9793 65.2983L47.5595 31.6348L24.0578 26.6871L15.0461 35.6987V47.139L24.1406 56.2335H38.1495L47.5129 46.8701L48.8115 48.1686L38.9102 58.0699H23.3799L13.2096 47.8997V34.9381L23.4627 24.6851Z" fill="black"/>
<path fill-rule="evenodd" clip-rule="evenodd" d="M110.104 23.4031L84.8094 28.6409L65.9824 62.4847L67.5872 63.3775L86.0054 30.2687L109.515 25.4004L118.524 34.261V45.4923L109.434 54.4334H95.4157L86.0513 45.2225L84.7635 46.5318L94.6639 56.2698H110.185L120.36 46.2619V33.4914L110.104 23.4031Z" fill="black"/>
<path d="M151.984 149V115.484H156.32L176.828 142.484V115.484H180.93V149H176.594L156.086 121.766V149H151.984ZM190.023 149H185.523L199.75 115.484H204.555L218.852 149H214.047L209.711 138.453H198.625L199.82 134.938H208.258L202 119.75L190.023 149ZM246.039 115.484V119H235.492V149H231.156V119H220.609V115.484H246.039ZM252.32 149H247.82L262.047 115.484H266.852L281.148 149H276.344L272.008 138.453H260.922L262.117 134.938H270.555L264.297 119.75L252.32 149ZM290.055 115.484V145.484H307.586V149H285.719V115.484H290.055ZM317.805 115.484V149H313.469V115.484H317.805ZM327.602 149H323.102L337.328 115.484H342.133L356.43 149H351.625L347.289 138.453H336.203L337.398 134.938H345.836L339.578 119.75L327.602 149ZM372.25 147.828V143.844C375.766 145.094 379.562 145.719 383.641 145.719C389.406 145.719 392.289 143.609 392.289 139.391C392.289 135.797 390.164 134 385.914 134H381.602C374.586 134 371.078 130.953 371.078 124.859C371.078 118.453 375.57 115.25 384.555 115.25C388.461 115.25 392.094 115.719 395.453 116.656V120.641C392.094 119.391 388.461 118.766 384.555 118.766C378.461 118.766 375.414 120.797 375.414 124.859C375.414 128.453 377.477 130.25 381.602 130.25H385.914C393.055 130.25 396.625 133.297 396.625 139.391C396.625 145.953 392.297 149.234 383.641 149.234C379.562 149.234 375.766 148.766 372.25 147.828ZM406.352 132.148C406.352 141.195 410.438 145.719 418.609 145.719C426.609 145.719 430.609 141.195 430.609 132.148C430.609 123.227 426.609 118.766 418.609 118.766C410.438 118.766 406.352 123.227 406.352 132.148ZM401.781 132.289C401.781 120.93 407.391 115.25 418.609 115.25C429.656 115.25 435.18 120.93 435.18 132.289C435.18 143.586 429.656 149.234 418.609 149.234C407.391 149.234 401.781 143.586 401.781 132.289ZM439.188 115.484H443.383L448.094 144.641L457.562 115.484H461.898L472.047 144.641L477.367 115.484H481.375L475.07 149H469.164L459.695 120.922L450.531 149H444.695L439.188 115.484ZM487.633 149H483.133L497.359 115.484H502.164L516.461 149H511.656L507.32 138.453H496.234L497.43 134.938H505.867L499.609 119.75L487.633 149ZM532.281 147.828V143.844C535.797 145.094 539.594 145.719 543.672 145.719C549.438 145.719 552.32 143.609 552.32 139.391C552.32 135.797 550.195 134 545.945 134H541.633C534.617 134 531.109 130.953 531.109 124.859C531.109 118.453 535.602 115.25 544.586 115.25C548.492 115.25 552.125 115.719 555.484 116.656V120.641C552.125 119.391 548.492 118.766 544.586 118.766C538.492 118.766 535.445 120.797 535.445 124.859C535.445 128.453 537.508 130.25 541.633 130.25H545.945C553.086 130.25 556.656 133.297 556.656 139.391C556.656 145.953 552.328 149.234 543.672 149.234C539.594 149.234 535.797 148.766 532.281 147.828ZM585.602 115.484V119H575.055V149H570.719V119H560.172V115.484H585.602ZM612.695 115.484V119H595.117V130.25H611.875V133.766H595.117V145.484H613.047V149H590.781V115.484H612.695ZM641.523 115.484V119H623.945V130.25H640.703V133.766H623.945V149H619.609V115.484H641.523ZM647.805 149H643.305L657.531 115.484H662.336L676.633 149H671.828L667.492 138.453H656.406L657.602 134.938H666.039L659.781 119.75L647.805 149ZM681.203 149V115.484H685.539L706.047 142.484V115.484H710.148V149H705.812L685.305 121.766V149H681.203ZM717.672 147.828V143.844C721.188 145.094 724.984 145.719 729.062 145.719C734.828 145.719 737.711 143.609 737.711 139.391C737.711 135.797 735.586 134 731.336 134H727.023C720.008 134 716.5 130.953 716.5 124.859C716.5 118.453 720.992 115.25 729.977 115.25C733.883 115.25 737.516 115.719 740.875 116.656V120.641C737.516 119.391 733.883 118.766 729.977 118.766C723.883 118.766 720.836 120.797 720.836 124.859C720.836 128.453 722.898 130.25 727.023 130.25H731.336C738.477 130.25 742.047 133.297 742.047 139.391C742.047 145.953 737.719 149.234 729.062 149.234C724.984 149.234 721.188 148.766 717.672 147.828ZM752.711 115.484V149H748.375V115.484H752.711ZM776.289 115.484L761.195 131.305L776.617 149H770.594L756.93 132.875V130.25L770.805 115.484H776.289ZM782.289 149H777.789L792.016 115.484H796.82L811.117 149H806.312L801.977 138.453H790.891L792.086 134.938H800.523L794.266 119.75L782.289 149Z" fill="#C4A26F"/>
<path d="M137 99L137 166" stroke="#C4A26F" stroke-width="3"/>
<defs>
<linearGradient id="paint0_linear" x1="82.8389" y1="128.431" x2="111.736" y2="129.074" gradientUnits="userSpaceOnUse">
<stop stop-color="#84673B"/>
<stop offset="1" stop-color="#C4A26F"/>
</linearGradient>
<linearGradient id="paint1_linear" x1="209.343" y1="38.5294" x2="2.9292e-07" y2="38.5294" gradientUnits="userSpaceOnUse">
<stop offset="0.381386" stop-color="#C4A26F"/>
<stop offset="0.736685" stop-color="#A88859"/>
<stop offset="1" stop-color="#84673B"/>
</linearGradient>
</defs>
</svg>
