<svg width="813" height="188" viewBox="0 0 813 188" fill="none" xmlns="http://www.w3.org/2000/svg">
<path fill-rule="evenodd" clip-rule="evenodd" d="M22.8326 85.4067L36.318 134.211L96.6808 168.887L84.4798 123.294L67.7837 78.343L22.8326 85.4067ZM25.1509 86.9014L37.8871 132.994L93.7647 165.094L82.7282 123.852L66.5851 80.3904L25.1509 86.9014Z" fill="#84673B"/>
<path d="M92.8291 122.652L76.133 78.9854L110.167 86.0491V187.51L92.8291 122.652Z" fill="url(#paint0_linear)"/>
<path d="M134.5 43L112.735 77.0587L67.7843 70.6372L20.2647 77.0587L0.5 43L20.2647 0L67.7843 9.06573L112.735 0L134.5 43Z" fill="url(#paint1_linear)"/>
<path d="M25.4023 43.1529V39.0431L28.4846 35.9608H32.5944L35.6768 39.0431V43.1529L32.5944 46.2353H28.4846L25.4023 43.1529Z" fill="black"/>
<path fill-rule="evenodd" clip-rule="evenodd" d="M28.1043 35.0425H32.9748L36.595 38.6628V43.5333L32.9748 47.1535H28.1043L24.4841 43.5333V38.6628L28.1043 35.0425ZM28.865 36.879L26.3205 39.4235V42.7726L28.865 45.317H32.2141L34.7586 42.7726V39.4235L32.2141 36.879H28.865Z" fill="black"/>
<path d="M97.3233 43.1529V39.0431L100.406 35.9608H104.515L107.598 39.0431V43.1529L104.515 46.2353H100.406L97.3233 43.1529Z" fill="black"/>
<path fill-rule="evenodd" clip-rule="evenodd" d="M100.025 35.0425H104.896L108.516 38.6628V43.5333L104.896 47.1535H100.025L96.4051 43.5333V38.6628L100.025 35.0425ZM100.786 36.879L98.2415 39.4235V42.7726L100.786 45.317H104.135L106.68 42.7726V39.4235L104.135 36.879H100.786Z" fill="black"/>
<path fill-rule="evenodd" clip-rule="evenodd" d="M24.4627 24.6851L49.7649 30.0118L68.5903 64.4168L66.9793 65.2983L48.5596 31.6348L25.0578 26.6871L16.0461 35.6987V47.139L25.1406 56.2335H39.1495L48.5129 46.8701L49.8115 48.1686L39.9102 58.0699H24.3799L14.2096 47.8997V34.9381L24.4627 24.6851Z" fill="black"/>
<path fill-rule="evenodd" clip-rule="evenodd" d="M111.104 23.4031L85.8094 28.6409L66.9824 62.4847L68.5872 63.3775L87.0054 30.2687L110.515 25.4004L119.524 34.261V45.4923L110.434 54.4334H96.4157L87.0513 45.2225L85.7635 46.5318L95.6639 56.2698H111.185L121.36 46.2619V33.4914L111.104 23.4031Z" fill="black"/>
<path d="M152.984 149V115.484H157.32L177.828 142.484V115.484H181.93V149H177.594L157.086 121.766V149H152.984ZM191.023 149H186.523L200.75 115.484H205.555L219.852 149H215.047L210.711 138.453H199.625L200.82 134.938H209.258L203 119.75L191.023 149ZM247.039 115.484V119H236.492V149H232.156V119H221.609V115.484H247.039ZM253.32 149H248.82L263.047 115.484H267.852L282.148 149H277.344L273.008 138.453H261.922L263.117 134.938H271.555L265.297 119.75L253.32 149ZM291.055 115.484V145.484H308.586V149H286.719V115.484H291.055ZM318.805 115.484V149H314.469V115.484H318.805ZM328.602 149H324.102L338.328 115.484H343.133L357.43 149H352.625L348.289 138.453H337.203L338.398 134.938H346.836L340.578 119.75L328.602 149ZM373.25 147.828V143.844C376.766 145.094 380.562 145.719 384.641 145.719C390.406 145.719 393.289 143.609 393.289 139.391C393.289 135.797 391.164 134 386.914 134H382.602C375.586 134 372.078 130.953 372.078 124.859C372.078 118.453 376.57 115.25 385.555 115.25C389.461 115.25 393.094 115.719 396.453 116.656V120.641C393.094 119.391 389.461 118.766 385.555 118.766C379.461 118.766 376.414 120.797 376.414 124.859C376.414 128.453 378.477 130.25 382.602 130.25H386.914C394.055 130.25 397.625 133.297 397.625 139.391C397.625 145.953 393.297 149.234 384.641 149.234C380.562 149.234 376.766 148.766 373.25 147.828ZM407.352 132.148C407.352 141.195 411.438 145.719 419.609 145.719C427.609 145.719 431.609 141.195 431.609 132.148C431.609 123.227 427.609 118.766 419.609 118.766C411.438 118.766 407.352 123.227 407.352 132.148ZM402.781 132.289C402.781 120.93 408.391 115.25 419.609 115.25C430.656 115.25 436.18 120.93 436.18 132.289C436.18 143.586 430.656 149.234 419.609 149.234C408.391 149.234 402.781 143.586 402.781 132.289ZM440.188 115.484H444.383L449.094 144.641L458.562 115.484H462.898L473.047 144.641L478.367 115.484H482.375L476.07 149H470.164L460.695 120.922L451.531 149H445.695L440.188 115.484ZM488.633 149H484.133L498.359 115.484H503.164L517.461 149H512.656L508.32 138.453H497.234L498.43 134.938H506.867L500.609 119.75L488.633 149ZM533.281 147.828V143.844C536.797 145.094 540.594 145.719 544.672 145.719C550.438 145.719 553.32 143.609 553.32 139.391C553.32 135.797 551.195 134 546.945 134H542.633C535.617 134 532.109 130.953 532.109 124.859C532.109 118.453 536.602 115.25 545.586 115.25C549.492 115.25 553.125 115.719 556.484 116.656V120.641C553.125 119.391 549.492 118.766 545.586 118.766C539.492 118.766 536.445 120.797 536.445 124.859C536.445 128.453 538.508 130.25 542.633 130.25H546.945C554.086 130.25 557.656 133.297 557.656 139.391C557.656 145.953 553.328 149.234 544.672 149.234C540.594 149.234 536.797 148.766 533.281 147.828ZM586.602 115.484V119H576.055V149H571.719V119H561.172V115.484H586.602ZM613.695 115.484V119H596.117V130.25H612.875V133.766H596.117V145.484H614.047V149H591.781V115.484H613.695ZM642.523 115.484V119H624.945V130.25H641.703V133.766H624.945V149H620.609V115.484H642.523ZM648.805 149H644.305L658.531 115.484H663.336L677.633 149H672.828L668.492 138.453H657.406L658.602 134.938H667.039L660.781 119.75L648.805 149ZM682.203 149V115.484H686.539L707.047 142.484V115.484H711.148V149H706.812L686.305 121.766V149H682.203ZM697.367 106.578H702.969L697.367 112.18H693.523L697.367 106.578ZM718.672 147.828V143.844C722.188 145.094 725.984 145.719 730.062 145.719C735.828 145.719 738.711 143.609 738.711 139.391C738.711 135.797 736.586 134 732.336 134H728.023C721.008 134 717.5 130.953 717.5 124.859C717.5 118.453 721.992 115.25 730.977 115.25C734.883 115.25 738.516 115.719 741.875 116.656V120.641C738.516 119.391 734.883 118.766 730.977 118.766C724.883 118.766 721.836 120.797 721.836 124.859C721.836 128.453 723.898 130.25 728.023 130.25H732.336C739.477 130.25 743.047 133.297 743.047 139.391C743.047 145.953 738.719 149.234 730.062 149.234C725.984 149.234 722.188 148.766 718.672 147.828ZM753.711 115.484V149H749.375V115.484H753.711ZM777.289 115.484L762.195 131.305L777.617 149H771.594L757.93 132.875V130.25L771.805 115.484H777.289ZM783.289 149H778.789L793.016 115.484H797.82L812.117 149H807.312L802.977 138.453H791.891L793.086 134.938H801.523L795.266 119.75L783.289 149Z" fill="#C4A26F"/>
<path d="M138 99L138 166" stroke="#C4A26F" stroke-width="3"/>
<defs>
<linearGradient id="paint0_linear" x1="83.8389" y1="128.431" x2="112.736" y2="129.074" gradientUnits="userSpaceOnUse">
<stop stop-color="#84673B"/>
<stop offset="1" stop-color="#C4A26F"/>
</linearGradient>
<linearGradient id="paint1_linear" x1="18.5" y1="9" x2="118" y2="64.5" gradientUnits="userSpaceOnUse">
<stop stop-color="#84673B"/>
<stop offset="1" stop-color="#C4A26F"/>
</linearGradient>
</defs>
</svg>
