<svg width="251" height="188" viewBox="0 0 251 188" fill="none" xmlns="http://www.w3.org/2000/svg">
<path fill-rule="evenodd" clip-rule="evenodd" d="M21.8326 85.4068L35.318 134.211L95.6808 168.887L83.4798 123.294L66.7837 78.343L21.8326 85.4068ZM24.1509 86.9014L36.8871 132.994L92.7647 165.094L81.7282 123.852L65.5851 80.3904L24.1509 86.9014Z" fill="#84673B"/>
<path d="M91.8291 122.652L75.133 78.9854L109.167 86.0491V187.51L91.8291 122.652Z" fill="url(#paint0_linear)"/>
<path d="M131 54.3944L111.735 77.0587L66.7843 70.6372L19.2647 77.0587L0 54.3944V22.6643L19.2647 0L66.7843 9.06573L111.735 0L131 22.6643V54.3944Z" fill="url(#paint1_linear)"/>
<path d="M24.4023 43.1529V39.0431L27.4846 35.9608H31.5944L34.6768 39.0431V43.1529L31.5944 46.2353H27.4846L24.4023 43.1529Z" fill="black"/>
<path fill-rule="evenodd" clip-rule="evenodd" d="M27.1043 35.0425H31.9748L35.595 38.6628V43.5332L31.9748 47.1535H27.1043L23.4841 43.5332V38.6628L27.1043 35.0425ZM27.865 36.879L25.3205 39.4234V42.7726L27.865 45.317H31.2141L33.7586 42.7726V39.4234L31.2141 36.879H27.865Z" fill="black"/>
<path d="M96.3233 43.1529V39.0431L99.4056 35.9608H103.515L106.598 39.0431V43.1529L103.515 46.2353H99.4056L96.3233 43.1529Z" fill="black"/>
<path fill-rule="evenodd" clip-rule="evenodd" d="M99.0253 35.0425H103.896L107.516 38.6628V43.5332L103.896 47.1535H99.0253L95.4051 43.5332V38.6628L99.0253 35.0425ZM99.786 36.879L97.2415 39.4234V42.7726L99.786 45.317H103.135L105.68 42.7726V39.4234L103.135 36.879H99.786Z" fill="black"/>
<path fill-rule="evenodd" clip-rule="evenodd" d="M23.4627 24.6851L48.7649 30.0118L67.5903 64.4168L65.9793 65.2984L47.5595 31.6348L24.0578 26.6871L15.0461 35.6988V47.139L24.1406 56.2335H38.1495L47.5129 46.8701L48.8115 48.1687L38.9102 58.0699H23.3799L13.2096 47.8997V34.9381L23.4627 24.6851Z" fill="black"/>
<path fill-rule="evenodd" clip-rule="evenodd" d="M110.104 23.4031L84.8094 28.6409L65.9824 62.4848L67.5872 63.3775L86.0054 30.2687L109.515 25.4004L118.524 34.261V45.4924L109.434 54.4334H95.4157L86.0513 45.2225L84.7635 46.5318L94.6639 56.2698H110.185L120.36 46.2619V33.4914L110.104 23.4031Z" fill="black"/>
<path d="M137 99L137 166" stroke="#C4A26F" stroke-width="3"/>
<path d="M148 112V102H148.963L155.774 110.755V102H156.451V112H155.845L148.678 102.825V112H148Z" fill="#C4A26F"/>
<path d="M158.648 112H157.849L162.464 102H163.355L167.991 112H167.099L165.588 108.643H161.016L161.237 108.014H165.309L162.863 102.573L158.648 112Z" fill="#C4A26F"/>
<path d="M175.979 102V102.629H172.484V112H171.735V102.629H168.312V102H175.979Z" fill="#C4A26F"/>
<path d="M177.106 112H176.307L180.921 102H181.813L186.449 112H185.557L184.045 108.643H179.474L179.695 108.014H183.767L181.321 102.573L177.106 112Z" fill="#C4A26F"/>
<path d="M188.588 102V111.371H194.494V112H187.839V102H188.588Z" fill="#C4A26F"/>
<path d="M197.104 102V112H196.355V102H197.104Z" fill="#C4A26F"/>
<path d="M199.657 112H198.858L203.473 102H204.364L209 112H208.108L206.597 108.643H202.025L202.246 108.014H206.318L203.872 102.573L199.657 112Z" fill="#C4A26F"/>
<path d="M148.667 146.007V144.186C151.17 145.069 153.929 145.51 156.943 145.51C161.938 145.51 164.435 143.634 164.435 139.883C164.435 137.124 162.811 135.745 159.563 135.745H154.658C150.219 135.745 148 133.759 148 129.786C148 125.262 151.254 123 157.761 123C160.431 123 163.017 123.331 165.52 123.993V125.648C163.017 124.876 160.431 124.49 157.761 124.49C152.422 124.49 149.752 126.255 149.752 129.786C149.752 132.655 151.387 134.09 154.658 134.09H159.563C163.979 134.09 166.187 136.021 166.187 139.883C166.187 144.628 163.106 147 156.943 147C153.929 147 151.17 146.669 148.667 146.007Z" fill="#C4A26F"/>
<path d="M171.777 134.934C171.777 141.985 175.131 145.51 181.838 145.51C188.424 145.51 191.716 141.985 191.716 134.934C191.716 127.971 188.424 124.49 181.838 124.49C175.131 124.49 171.777 127.971 171.777 134.934ZM169.858 135.033C169.858 127.011 173.852 123 181.838 123C189.703 123 193.635 127.011 193.635 135.033C193.635 143.011 189.703 147 181.838 147C173.852 147 169.858 143.011 169.858 135.033Z" fill="#C4A26F"/>
<path d="M196.071 123.166H197.89L201.778 145.163L209.486 123.166H211.238L219.164 145.378L223.586 123.166H225.271L220.449 146.834H217.913L210.371 125.218L202.812 146.834H200.326L196.071 123.166Z" fill="#C4A26F"/>
<path d="M229.142 146.834H227.273L238.069 123.166H240.154L251 146.834H248.914L245.377 138.89H234.682L235.199 137.4H244.726L239.003 124.523L229.142 146.834Z" fill="#C4A26F"/>
<path d="M148.207 165.703V165.159C148.984 165.423 149.84 165.555 150.775 165.555C152.324 165.555 153.099 164.995 153.099 163.874C153.099 163.049 152.595 162.637 151.588 162.637H150.066C148.689 162.637 148 162.044 148 160.857C148 159.505 149.01 158.83 151.029 158.83C151.857 158.83 152.659 158.929 153.436 159.126V159.621C152.659 159.39 151.857 159.275 151.029 159.275C149.372 159.275 148.544 159.802 148.544 160.857C148.544 161.714 149.051 162.143 150.066 162.143H151.588C152.958 162.143 153.643 162.72 153.643 163.874C153.643 165.291 152.687 166 150.775 166C149.84 166 148.984 165.901 148.207 165.703Z" fill="#C4A26F"/>
<path d="M159.829 158.879V159.324H157.293V165.951H156.749V159.324H154.264V158.879H159.829Z" fill="#C4A26F"/>
<path d="M165.576 158.879V159.324H161.258V162.143H165.4V162.588H161.258V165.505H165.648V165.951H160.715V158.879H165.576Z" fill="#C4A26F"/>
<path d="M172.037 158.879V159.324H167.719V162.143H171.861V162.588H167.719V165.951H167.175V158.879H172.037Z" fill="#C4A26F"/>
<path d="M173.186 165.951H172.606L175.956 158.879H176.603L179.968 165.951H179.321L178.223 163.577H174.905L175.065 163.132H178.021L176.245 159.285L173.186 165.951Z" fill="#C4A26F"/>
<path d="M180.977 165.951V158.879H181.676L186.62 165.07V158.879H187.112V165.951H186.672L181.469 159.463V165.951H180.977ZM184.337 157H185.16L183.923 158.182H183.488L184.337 157Z" fill="#C4A26F"/>
<path d="M188.722 165.703V165.159C189.498 165.423 190.354 165.555 191.29 165.555C192.839 165.555 193.614 164.995 193.614 163.874C193.614 163.049 193.11 162.637 192.102 162.637H190.58C189.203 162.637 188.515 162.044 188.515 160.857C188.515 159.505 189.524 158.83 191.543 158.83C192.372 158.83 193.174 158.929 193.951 159.126V159.621C193.174 159.39 192.372 159.275 191.543 159.275C189.887 159.275 189.058 159.802 189.058 160.857C189.058 161.714 189.566 162.143 190.58 162.143H192.102C193.473 162.143 194.158 162.72 194.158 163.874C194.158 165.291 193.202 166 191.29 166C190.354 166 189.498 165.901 188.722 165.703Z" fill="#C4A26F"/>
<path d="M196.099 158.879V165.951H195.555V158.879H196.099ZM201.178 158.879L197.652 162.227L201.302 165.951H200.489L197.109 162.4V162.093L200.432 158.879H201.178Z" fill="#C4A26F"/>
<path d="M202.218 165.951H201.638L204.988 158.879H205.635L209 165.951H208.353L207.255 163.577H203.937L204.097 163.132H207.053L205.278 159.285L202.218 165.951Z" fill="#C4A26F"/>
<defs>
<linearGradient id="paint0_linear" x1="82.8389" y1="128.431" x2="111.736" y2="129.074" gradientUnits="userSpaceOnUse">
<stop stop-color="#84673B"/>
<stop offset="1" stop-color="#C4A26F"/>
</linearGradient>
<linearGradient id="paint1_linear" x1="209.343" y1="38.5294" x2="2.9292e-07" y2="38.5294" gradientUnits="userSpaceOnUse">
<stop offset="0.381386" stop-color="#C4A26F"/>
<stop offset="0.736685" stop-color="#A88859"/>
<stop offset="1" stop-color="#84673B"/>
</linearGradient>
</defs>
</svg>
